<?xml version="1.0" encoding="UTF-8"?>
<svg id="Layer_2" data-name="Layer 2" xmlns="http://www.w3.org/2000/svg" viewBox="0 0 381.98 211.4">
  <defs>
    <style>
      .cls-1 {
        fill: none;
        stroke: #fff;
        stroke-linecap: round;
        stroke-miterlimit: 10;
        stroke-width: 13px;
      }

      .cls-2 {
        fill: #fff;
        stroke-width: 0px;
      }
    </style>
  </defs>
  <g id="Controller">
    <path class="cls-2" d="M294.71,83.33c0-3.16-1.11-5.85-3.34-8.08-2.04-2.04-4.64-3.06-7.8-3.06s-5.76,1.02-7.8,3.06c-2.23,2.23-3.34,4.92-3.34,8.08,0,2.97,1.11,5.57,3.34,7.8,2.04,2.23,4.64,3.34,7.8,3.34s5.76-1.11,7.8-3.34c2.23-2.23,3.34-4.83,3.34-7.8M250.14,83.33c0-3.16-1.11-5.85-3.34-8.08-2.04-2.04-4.64-3.06-7.8-3.06s-5.76,1.02-7.8,3.06c-2.23,2.23-3.34,4.92-3.34,8.08,0,2.97,1.11,5.57,3.34,7.8,2.04,2.23,4.64,3.34,7.8,3.34s5.76-1.11,7.8-3.34c2.23-2.23,3.34-4.83,3.34-7.8M272.42,66.62c0-3.16-1.11-5.85-3.34-8.08-2.04-2.04-4.64-3.06-7.8-3.06s-5.76,1.02-7.8,3.06c-2.23,2.23-3.34,4.92-3.34,8.08,0,2.97,1.11,5.57,3.34,7.8,2.04,2.23,4.64,3.34,7.8,3.34s5.76-1.11,7.8-3.34c2.23-2.23,3.34-4.83,3.34-7.8M145.98,31.8h85.78c3.71-1.67,7.43-3.06,11.14-4.18,19.87-.37,35,3.99,45.4,13.09l5.29,8.63,2.51,1.11,4.46,5.85c7.43,26.55,13.65,57.1,18.66,91.63,3.34,18.57,4.18,33.14,2.51,43.73-2.79,9.28-8.91,15.6-18.38,18.94-8.17,2.04-15.23.09-21.17-5.85l-17.27-30.92c-4.27-11.88-11.05-17.45-20.33-16.71h-55.7v-.28l-55.7.28c-9.28-.74-16.15,4.83-20.61,16.71l-17.27,30.92c-5.76,5.76-12.72,7.71-20.89,5.85-9.47-3.34-15.6-9.66-18.38-18.94-1.67-10.58-.84-25.16,2.51-43.73,5.01-34.54,11.23-65.08,18.66-91.63l4.46-5.85,2.51-1.11,5.29-8.91c10.4-9.1,25.53-13.37,45.4-12.81l11.14,4.18M144.31,105.61v11.14h-11.14v11.14h11.14v11.14h11.14v-11.14h11.14v-11.14h-11.14v-11.14h-11.14M239,122.32c0-4.64-1.67-8.63-5.01-11.98-3.16-3.16-7.06-4.73-11.7-4.73s-8.63,1.58-11.98,4.73c-3.16,3.34-4.73,7.33-4.73,11.98s1.58,8.26,4.73,11.42c3.34,3.53,7.33,5.29,11.98,5.29s8.54-1.76,11.7-5.29c3.34-3.16,5.01-6.96,5.01-11.42M133.16,77.76c0-4.64-1.67-8.63-5.01-11.98-3.16-3.16-7.06-4.73-11.7-4.73s-8.63,1.58-11.98,4.73c-3.16,3.34-4.73,7.33-4.73,11.98s1.58,8.26,4.73,11.42c3.34,3.53,7.33,5.29,11.98,5.29s8.54-1.76,11.7-5.29c3.34-3.16,5.01-6.96,5.01-11.42M272.42,100.04c0-3.16-1.11-5.85-3.34-8.08-2.04-2.04-4.64-3.06-7.8-3.06s-5.76,1.02-7.8,3.06c-2.23,2.23-3.34,4.92-3.34,8.08,0,2.97,1.11,5.57,3.34,7.8,2.04,2.23,4.64,3.34,7.8,3.34s5.76-1.11,7.8-3.34c2.23-2.23,3.34-4.83,3.34-7.8"/>
    <path class="cls-1" d="M74.44,33.42s-25.91,25.71-35.38,63.78c-9.47,38.07,1.03,74.32,1.03,74.32"/>
    <path class="cls-1" d="M57.14,6.5S23.79,39.61,11.6,88.62c-12.19,49.01,1.32,95.68,1.32,95.68"/>
    <path class="cls-1" d="M307.54,33.42s25.91,25.71,35.38,63.78c9.47,38.07-1.03,74.32-1.03,74.32"/>
    <path class="cls-1" d="M324.84,6.5s33.36,33.11,45.55,82.12c12.19,49.01-1.32,95.68-1.32,95.68"/>
  </g>
</svg>