<?xml version="1.0" encoding="UTF-8"?>
<svg id="Layer_2" data-name="Layer 2" xmlns="http://www.w3.org/2000/svg" viewBox="0 0 267.38 224.4">
  <defs>
    <style>
      .cls-1 {
        fill: none;
        stroke: #fff;
        stroke-linecap: round;
        stroke-miterlimit: 10;
        stroke-width: 13px;
      }

      .cls-2 {
        fill: #fff;
        stroke-width: 0px;
      }
    </style>
  </defs>
  <g id="Controller">
    <path class="cls-2" d="M239.53,96.34c0-3.16-1.11-5.85-3.34-8.08-2.04-2.04-4.64-3.06-7.8-3.06s-5.76,1.02-7.8,3.06c-2.23,2.23-3.34,4.92-3.34,8.08,0,2.97,1.11,5.57,3.34,7.8,2.04,2.23,4.64,3.34,7.8,3.34s5.76-1.11,7.8-3.34c2.23-2.23,3.34-4.83,3.34-7.8M194.96,96.34c0-3.16-1.11-5.85-3.34-8.08-2.04-2.04-4.64-3.06-7.8-3.06s-5.76,1.02-7.8,3.06c-2.23,2.23-3.34,4.92-3.34,8.08,0,2.97,1.11,5.57,3.34,7.8,2.04,2.23,4.64,3.34,7.8,3.34s5.76-1.11,7.8-3.34c2.23-2.23,3.34-4.83,3.34-7.8M217.25,79.63c0-3.16-1.11-5.85-3.34-8.08-2.04-2.04-4.64-3.06-7.8-3.06s-5.76,1.02-7.8,3.06c-2.23,2.23-3.34,4.92-3.34,8.08,0,2.97,1.11,5.57,3.34,7.8,2.04,2.23,4.64,3.34,7.8,3.34s5.76-1.11,7.8-3.34c2.23-2.23,3.34-4.83,3.34-7.8M90.8,44.81h85.78c3.71-1.67,7.43-3.06,11.14-4.18,19.87-.37,35,3.99,45.4,13.09l5.29,8.63,2.51,1.11,4.46,5.85c7.43,26.55,13.65,57.1,18.66,91.63,3.34,18.57,4.18,33.14,2.51,43.73-2.79,9.28-8.91,15.6-18.38,18.94-8.17,2.04-15.23.09-21.17-5.85l-17.27-30.92c-4.27-11.88-11.05-17.45-20.33-16.71h-55.7v-.28l-55.7.28c-9.28-.74-16.15,4.83-20.61,16.71l-17.27,30.92c-5.76,5.76-12.72,7.71-20.89,5.85-9.47-3.34-15.6-9.66-18.38-18.94C-.84,194.1,0,179.52,3.34,160.95c5.01-34.54,11.23-65.08,18.66-91.63l4.46-5.85,2.51-1.11,5.29-8.91c10.4-9.1,25.53-13.37,45.4-12.81l11.14,4.18M89.13,118.62v11.14h-11.14v11.14h11.14v11.14h11.14v-11.14h11.14v-11.14h-11.14v-11.14h-11.14M183.82,135.33c0-4.64-1.67-8.63-5.01-11.98-3.16-3.16-7.06-4.73-11.7-4.73s-8.63,1.58-11.98,4.73c-3.16,3.34-4.73,7.33-4.73,11.98s1.58,8.26,4.73,11.42c3.34,3.53,7.33,5.29,11.98,5.29s8.54-1.76,11.7-5.29c3.34-3.16,5.01-6.96,5.01-11.42M77.99,90.77c0-4.64-1.67-8.63-5.01-11.98-3.16-3.16-7.06-4.73-11.7-4.73s-8.63,1.58-11.98,4.73c-3.16,3.34-4.73,7.33-4.73,11.98s1.58,8.26,4.73,11.42c3.34,3.53,7.33,5.29,11.98,5.29s8.54-1.76,11.7-5.29c3.34-3.16,5.01-6.96,5.01-11.42M217.25,113.05c0-3.16-1.11-5.85-3.34-8.08-2.04-2.04-4.64-3.06-7.8-3.06s-5.76,1.02-7.8,3.06c-2.23,2.23-3.34,4.92-3.34,8.08,0,2.97,1.11,5.57,3.34,7.8,2.04,2.23,4.64,3.34,7.8,3.34s5.76-1.11,7.8-3.34c2.23-2.23,3.34-4.83,3.34-7.8"/>
    <g>
      <path class="cls-1" d="M200.51,19.51s-29.03-13.01-64.7-13.01c-35.67,0-64.7,13.01-64.7,13.01"/>
      <polygon class="cls-2" points="221.45 28.89 197.35 3.61 198.95 18.81 186.54 27.72 221.45 28.89"/>
      <polygon class="cls-2" points="50.17 28.89 74.27 3.61 72.67 18.81 85.08 27.72 50.17 28.89"/>
    </g>
  </g>
</svg>